<?xml version="1.0" standalone="no"?>
<!DOCTYPE svg PUBLIC "-//W3C//DTD SVG 20010904//EN"
 "http://www.w3.org/TR/2001/REC-SVG-20010904/DTD/svg10.dtd">
<svg version="1.0" xmlns="http://www.w3.org/2000/svg"
 width="512.000000pt" height="512.000000pt" viewBox="0 0 512.000000 512.000000"
 preserveAspectRatio="xMidYMid meet">
<metadata>
Created by potrace 1.11, written by Peter Selinger 2001-2013
</metadata>
<g transform="translate(0.000000,512.000000) scale(0.100000,-0.100000)"
fill="#000000" stroke="none">
<path d="M2724 3548 c-3 -4 -5 -46 -5 -92 l0 -85 -32 -6 c-18 -3 -39 -7 -47
-9 -191 -35 -354 -179 -392 -346 -23 -100 -15 -202 22 -289 24 -54 120 -153
162 -167 13 -4 25 -10 28 -13 5 -7 182 -65 232 -77 l27 -6 -1 -246 c0 -136 -2
-250 -4 -254 -8 -13 -92 23 -123 52 -36 35 -58 76 -69 127 l-8 38 -139 0 -140
0 3 -40 c13 -183 145 -321 359 -376 43 -11 88 -20 100 -21 22 -2 23 -6 22 -83
0 -44 0 -86 0 -92 1 -9 23 -13 77 -13 66 0 75 2 73 18 -1 9 -1 51 0 93 l1 76
51 7 c257 34 448 262 425 508 -12 132 -73 231 -180 293 -50 28 -195 80 -253
90 -40 6 -43 9 -44 38 -2 168 1 461 6 465 11 11 97 -43 125 -79 16 -19 35 -54
42 -77 l13 -42 137 0 c158 0 149 -7 122 95 -26 103 -84 183 -174 242 -73 47
-174 83 -241 85 l-29 1 0 94 c0 75 -3 93 -15 94 -63 4 -128 3 -131 -3z m-6
-629 c0 -143 -3 -229 -9 -229 -6 0 -34 11 -62 25 -95 45 -136 100 -141 188 -6
107 28 172 114 215 104 52 98 65 98 -199z m239 -538 c88 -47 127 -106 125
-192 -1 -104 -58 -182 -161 -223 -24 -9 -45 -15 -47 -13 -4 4 -6 242 -5 409 1
57 1 57 26 48 13 -5 41 -18 62 -29z"/>
<path d="M4049 3026 c-2 -2 -26 -6 -54 -9 -164 -18 -244 -105 -253 -273 l-5
-84 -53 0 -53 0 0 -75 c0 -82 -5 -78 72 -78 l37 1 0 -379 0 -379 95 0 95 0 0
378 0 379 76 -1 c42 -1 79 1 83 4 4 3 8 38 8 78 l1 72 -85 0 -86 0 5 72 c5 65
9 75 37 100 29 26 44 31 94 31 19 0 19 0 21 90 1 34 -3 65 -9 69 -11 9 -20 10
-26 4z"/>
<path d="M1785 2755 c0 -118 -3 -215 -7 -215 -5 0 -8 4 -8 9 0 17 -106 80
-170 102 -196 66 -414 -24 -506 -207 -41 -84 -54 -148 -50 -259 4 -111 21
-172 71 -251 106 -166 289 -235 479 -180 57 17 136 66 165 102 10 13 20 21 23
19 2 -2 3 -31 2 -65 l-2 -61 96 3 96 3 0 605 0 605 -95 3 -95 3 1 -216z m-160
-273 c105 -56 157 -148 156 -277 0 -171 -101 -292 -253 -303 -79 -6 -147 19
-202 73 -70 71 -98 152 -90 267 7 111 62 193 159 240 52 25 69 29 125 25 40
-2 80 -12 105 -25z"/>
</g>
</svg>
