<svg width="172" height="24" viewBox="0 0 78 12" fill="none" xmlns="http://www.w3.org/2000/svg">
<path d="M0.444 6.664C0.444 6 0.58 5.412 0.852 4.9C1.132 4.388 1.508 3.992 1.98 3.712C2.46 3.424 2.992 3.28 3.576 3.28C4.008 3.28 4.432 3.376 4.848 3.568C5.272 3.752 5.608 4 5.856 4.312V1.12H7.236V10H5.856V9.004C5.632 9.324 5.32 9.588 4.92 9.796C4.528 10.004 4.076 10.108 3.564 10.108C2.988 10.108 2.46 9.964 1.98 9.676C1.508 9.38 1.132 8.972 0.852 8.452C0.58 7.924 0.444 7.328 0.444 6.664ZM5.856 6.688C5.856 6.232 5.76 5.836 5.568 5.5C5.384 5.164 5.14 4.908 4.836 4.732C4.532 4.556 4.204 4.468 3.852 4.468C3.5 4.468 3.172 4.556 2.868 4.732C2.564 4.9 2.316 5.152 2.124 5.488C1.94 5.816 1.848 6.208 1.848 6.664C1.848 7.12 1.94 7.52 2.124 7.864C2.316 8.208 2.564 8.472 2.868 8.656C3.18 8.832 3.508 8.92 3.852 8.92C4.204 8.92 4.532 8.832 4.836 8.656C5.14 8.48 5.384 8.224 5.568 7.888C5.76 7.544 5.856 7.144 5.856 6.688ZM15.0928 6.532C15.0928 6.78 15.0768 7.004 15.0448 7.204H9.99281C10.0328 7.732 10.2288 8.156 10.5808 8.476C10.9328 8.796 11.3648 8.956 11.8768 8.956C12.6128 8.956 13.1328 8.648 13.4368 8.032H14.9128C14.7128 8.64 14.3488 9.14 13.8208 9.532C13.3008 9.916 12.6528 10.108 11.8768 10.108C11.2448 10.108 10.6768 9.968 10.1728 9.688C9.67681 9.4 9.28481 9 8.99681 8.488C8.71681 7.968 8.57681 7.368 8.57681 6.688C8.57681 6.008 8.71281 5.412 8.98481 4.9C9.26481 4.38 9.65281 3.98 10.1488 3.7C10.6528 3.42 11.2288 3.28 11.8768 3.28C12.5008 3.28 13.0568 3.416 13.5448 3.688C14.0328 3.96 14.4128 4.344 14.6848 4.84C14.9568 5.328 15.0928 5.892 15.0928 6.532ZM13.6648 6.1C13.6568 5.596 13.4768 5.192 13.1248 4.888C12.7728 4.584 12.3368 4.432 11.8168 4.432C11.3448 4.432 10.9408 4.584 10.6048 4.888C10.2688 5.184 10.0688 5.588 10.0048 6.1H13.6648ZM18.9951 8.776L20.8671 3.388H22.3191L19.7991 10H18.1671L15.6591 3.388H17.1231L18.9951 8.776ZM29.0197 4.504H27.7957V10H26.4157V4.504H25.6357V3.388H26.4157V2.92C26.4157 2.16 26.6157 1.608 27.0157 1.264C27.4237 0.912 28.0597 0.736 28.9237 0.736V1.876C28.5077 1.876 28.2157 1.956 28.0477 2.116C27.8797 2.268 27.7957 2.536 27.7957 2.92V3.388H29.0197V4.504ZM30.928 2.512C30.68 2.512 30.472 2.428 30.304 2.26C30.136 2.092 30.052 1.884 30.052 1.636C30.052 1.388 30.136 1.18 30.304 1.012C30.472 0.844 30.68 0.76 30.928 0.76C31.168 0.76 31.372 0.844 31.54 1.012C31.708 1.18 31.792 1.388 31.792 1.636C31.792 1.884 31.708 2.092 31.54 2.26C31.372 2.428 31.168 2.512 30.928 2.512ZM31.6 3.388V10H30.232V3.388H31.6ZM36.7321 3.28C37.2521 3.28 37.7161 3.388 38.1241 3.604C38.5401 3.82 38.8641 4.14 39.0961 4.564C39.3281 4.988 39.4441 5.5 39.4441 6.1V10H38.0881V6.304C38.0881 5.712 37.9401 5.26 37.6441 4.948C37.3481 4.628 36.9441 4.468 36.4321 4.468C35.9201 4.468 35.5121 4.628 35.2081 4.948C34.9121 5.26 34.7641 5.712 34.7641 6.304V10H33.3961V3.388H34.7641V4.144C34.9881 3.872 35.2721 3.66 35.6161 3.508C35.9681 3.356 36.3401 3.28 36.7321 3.28ZM40.7331 6.664C40.7331 6 40.8691 5.412 41.1411 4.9C41.4211 4.388 41.7971 3.992 42.2691 3.712C42.7491 3.424 43.2771 3.28 43.8531 3.28C44.3731 3.28 44.8251 3.384 45.2091 3.592C45.6011 3.792 45.9131 4.044 46.1451 4.348V3.388H47.5251V10H46.1451V9.016C45.9131 9.328 45.5971 9.588 45.1971 9.796C44.7971 10.004 44.3411 10.108 43.8291 10.108C43.2611 10.108 42.7411 9.964 42.2691 9.676C41.7971 9.38 41.4211 8.972 41.1411 8.452C40.8691 7.924 40.7331 7.328 40.7331 6.664ZM46.1451 6.688C46.1451 6.232 46.0491 5.836 45.8571 5.5C45.6731 5.164 45.4291 4.908 45.1251 4.732C44.8211 4.556 44.4931 4.468 44.1411 4.468C43.7891 4.468 43.4611 4.556 43.1571 4.732C42.8531 4.9 42.6051 5.152 42.4131 5.488C42.2291 5.816 42.1371 6.208 42.1371 6.664C42.1371 7.12 42.2291 7.52 42.4131 7.864C42.6051 8.208 42.8531 8.472 43.1571 8.656C43.4691 8.832 43.7971 8.92 44.1411 8.92C44.4931 8.92 44.8211 8.832 45.1251 8.656C45.4291 8.48 45.6731 8.224 45.8571 7.888C46.0491 7.544 46.1451 7.144 46.1451 6.688ZM52.6579 3.28C53.1779 3.28 53.6419 3.388 54.0499 3.604C54.4659 3.82 54.7899 4.14 55.0219 4.564C55.2539 4.988 55.3699 5.5 55.3699 6.1V10H54.0139V6.304C54.0139 5.712 53.8659 5.26 53.5699 4.948C53.2739 4.628 52.8699 4.468 52.3579 4.468C51.8459 4.468 51.4379 4.628 51.1339 4.948C50.8379 5.26 50.6899 5.712 50.6899 6.304V10H49.3219V3.388H50.6899V4.144C50.9139 3.872 51.1979 3.66 51.5419 3.508C51.8939 3.356 52.2659 3.28 52.6579 3.28ZM56.6588 6.688C56.6588 6.008 56.7948 5.412 57.0668 4.9C57.3468 4.38 57.7308 3.98 58.2188 3.7C58.7068 3.42 59.2668 3.28 59.8988 3.28C60.6988 3.28 61.3588 3.472 61.8788 3.856C62.4068 4.232 62.7628 4.772 62.9468 5.476H61.4708C61.3508 5.148 61.1588 4.892 60.8948 4.708C60.6308 4.524 60.2988 4.432 59.8988 4.432C59.3388 4.432 58.8908 4.632 58.5548 5.032C58.2268 5.424 58.0628 5.976 58.0628 6.688C58.0628 7.4 58.2268 7.956 58.5548 8.356C58.8908 8.756 59.3388 8.956 59.8988 8.956C60.6908 8.956 61.2148 8.608 61.4708 7.912H62.9468C62.7548 8.584 62.3948 9.12 61.8668 9.52C61.3388 9.912 60.6828 10.108 59.8988 10.108C59.2668 10.108 58.7068 9.968 58.2188 9.688C57.7308 9.4 57.3468 9 57.0668 8.488C56.7948 7.968 56.6588 7.368 56.6588 6.688ZM70.3702 6.532C70.3702 6.78 70.3542 7.004 70.3222 7.204H65.2702C65.3102 7.732 65.5062 8.156 65.8582 8.476C66.2102 8.796 66.6422 8.956 67.1542 8.956C67.8902 8.956 68.4102 8.648 68.7142 8.032H70.1902C69.9902 8.64 69.6262 9.14 69.0982 9.532C68.5782 9.916 67.9302 10.108 67.1542 10.108C66.5222 10.108 65.9542 9.968 65.4502 9.688C64.9542 9.4 64.5622 9 64.2742 8.488C63.9942 7.968 63.8542 7.368 63.8542 6.688C63.8542 6.008 63.9902 5.412 64.2622 4.9C64.5422 4.38 64.9302 3.98 65.4262 3.7C65.9302 3.42 66.5062 3.28 67.1542 3.28C67.7782 3.28 68.3342 3.416 68.8222 3.688C69.3102 3.96 69.6902 4.344 69.9622 4.84C70.2342 5.328 70.3702 5.892 70.3702 6.532ZM68.9422 6.1C68.9342 5.596 68.7542 5.192 68.4022 4.888C68.0502 4.584 67.6142 4.432 67.0942 4.432C66.6222 4.432 66.2182 4.584 65.8822 4.888C65.5462 5.184 65.3462 5.588 65.2822 6.1H68.9422Z" fill="white"/>
<path d="M23.9051 10.084C23.6571 10.084 23.4491 10 23.2811 9.832C23.1131 9.664 23.0291 9.456 23.0291 9.208C23.0291 8.96 23.1131 8.752 23.2811 8.584C23.4491 8.416 23.6571 8.332 23.9051 8.332C24.1451 8.332 24.3491 8.416 24.5171 8.584C24.6851 8.752 24.7691 8.96 24.7691 9.208C24.7691 9.456 24.6851 9.664 24.5171 9.832C24.3491 10 24.1451 10.084 23.9051 10.084ZM77.3444 7.624C77.3444 8.024 77.2444 8.4 77.0444 8.752C76.8524 9.104 76.5644 9.4 76.1804 9.64C75.8044 9.88 75.3564 10.024 74.8364 10.072V11.044H74.0564V10.072C73.3044 10 72.6964 9.764 72.2324 9.364C71.7684 8.964 71.5364 8.436 71.5364 7.78H73.0004C73.0244 8.092 73.1244 8.352 73.3004 8.56C73.4764 8.76 73.7284 8.888 74.0564 8.944V6.304C73.5204 6.168 73.0844 6.032 72.7484 5.896C72.4124 5.752 72.1244 5.528 71.8844 5.224C71.6524 4.92 71.5364 4.504 71.5364 3.976C71.5364 3.312 71.7684 2.764 72.2324 2.332C72.6964 1.892 73.3044 1.636 74.0564 1.564V0.592H74.8364V1.564C75.5404 1.628 76.1044 1.852 76.5284 2.236C76.9604 2.612 77.2044 3.132 77.2604 3.796H75.7964C75.7724 3.548 75.6764 3.328 75.5084 3.136C75.3404 2.936 75.1164 2.8 74.8364 2.728V5.32C75.3724 5.448 75.8084 5.584 76.1444 5.728C76.4804 5.864 76.7644 6.084 76.9964 6.388C77.2284 6.684 77.3444 7.096 77.3444 7.624ZM72.9284 3.904C72.9284 4.232 73.0244 4.488 73.2164 4.672C73.4164 4.856 73.6964 5.004 74.0564 5.116V2.692C73.7124 2.732 73.4364 2.856 73.2284 3.064C73.0284 3.272 72.9284 3.552 72.9284 3.904ZM74.8364 8.944C75.1884 8.888 75.4644 8.748 75.6644 8.524C75.8644 8.292 75.9644 8.016 75.9644 7.696C75.9644 7.376 75.8644 7.128 75.6644 6.952C75.4724 6.768 75.1964 6.62 74.8364 6.508V8.944Z" fill="#22C197"/>
</svg>
